<?xml version="1.0" encoding="UTF-8"?>
<svg id="_Слой_2" data-name="Слой 2" xmlns="http://www.w3.org/2000/svg" xmlns:xlink="http://www.w3.org/1999/xlink" viewBox="0 0 30.05 30.05">
  <defs>
    <style>
      .cls-1 {
        opacity: .85;
      }

      .cls-1, .cls-2, .cls-3, .cls-4, .cls-5 {
        stroke-width: 0px;
      }

      .cls-1, .cls-4 {
        fill: #fff;
      }

      .cls-2 {
        fill: #2d7c33;
      }

      .cls-3 {
        fill: url(#_Безымянный_градиент_20);
      }

      .cls-4 {
        opacity: .78;
      }

      .cls-5 {
        fill: #7fce6b;
      }
    </style>
    <radialGradient id="_Безымянный_градиент_20" data-name="Безымянный градиент 20" cx="15.03" cy="15.03" fx="15.03" fy="15.03" r="14.58" gradientUnits="userSpaceOnUse">
      <stop offset=".67" stop-color="#062d08"/>
      <stop offset=".74" stop-color="#144a18"/>
      <stop offset=".83" stop-color="#27712d"/>
      <stop offset=".89" stop-color="#2d7c33"/>
    </radialGradient>
  </defs>
  <g id="_Слой_1-2" data-name="Слой 1">
    <g>
      <g>
        <path class="cls-5" d="m15.03,29.3C7.15,29.3.75,22.9.75,15.03S7.15.75,15.03.75s14.28,6.4,14.28,14.28-6.4,14.28-14.28,14.28Z"/>
        <path class="cls-2" d="m15.03,1.5c7.46,0,13.53,6.07,13.53,13.53s-6.07,13.53-13.53,13.53S1.5,22.48,1.5,15.03,7.57,1.5,15.03,1.5m0-1.5C6.73,0,0,6.73,0,15.03s6.73,15.03,15.03,15.03,15.03-6.73,15.03-15.03S23.32,0,15.03,0h0Z"/>
      </g>
      <path class="cls-3" d="m15.9,24.99l13.49-5.59c.08-.27.14-.54.21-.81l-6.9,2.86,5.58-13.47c-.13-.25-.28-.49-.43-.73l-2.86,6.91-2.67-6.44h0s-2.93-7.07-2.93-7.07c-.27-.08-.54-.14-.81-.21l2.86,6.91L7.96,1.77c-.25.13-.48.28-.72.43l6.91,2.86-6.43,2.66L.65,10.65c-.08.27-.14.54-.21.81l6.9-2.86L1.76,22.08c.13.25.28.49.43.73l2.86-6.91,2.67,6.44h0s2.93,7.07,2.93,7.07c.27.08.54.14.81.21l-2.86-6.91,6.43,2.66h0s0,0,0,0l7.06,2.93c.25-.13.48-.28.72-.43l-6.91-2.86Z"/>
      <ellipse class="cls-1" cx="8.85" cy="9.49" rx="6.36" ry="4.01" transform="translate(-4.1 10.31) rotate(-50.64)"/>
      <ellipse class="cls-4" cx="11.93" cy="17.51" rx="3.06" ry="2.15" transform="translate(-7.9 10.05) rotate(-35.11)"/>
    </g>
  </g>
</svg>