<?xml version="1.0" encoding="UTF-8"?>
<svg id="_Слой_2" data-name="Слой 2" xmlns="http://www.w3.org/2000/svg" xmlns:xlink="http://www.w3.org/1999/xlink" viewBox="0 0 24 30">
  <defs>
    <style>
      .cls-1 {
        fill: #fff;
        opacity: .86;
      }

      .cls-1, .cls-2, .cls-3, .cls-4 {
        stroke-width: 0px;
      }

      .cls-2 {
        fill: url(#_Безымянный_градиент_43);
      }

      .cls-3 {
        fill: #2d7c33;
      }

      .cls-4 {
        fill: #7fce6b;
      }
    </style>
    <radialGradient id="_Безымянный_градиент_43" data-name="Безымянный градиент 43" cx="12" cy="15" fx="12" fy="15" r="11.59" gradientTransform="translate(0 -3.75) scale(1 1.25)" gradientUnits="userSpaceOnUse">
      <stop offset=".51" stop-color="#062d08"/>
      <stop offset=".72" stop-color="#216325"/>
      <stop offset=".83" stop-color="#2d7c33"/>
    </radialGradient>
  </defs>
  <g id="_Слой_1-2" data-name="Слой 1">
    <g>
      <g>
        <ellipse class="cls-4" cx="12" cy="15" rx="11.25" ry="14.25"/>
        <path class="cls-3" d="m12,1.5c5.79,0,10.5,6.06,10.5,13.5s-4.71,13.5-10.5,13.5S1.5,22.44,1.5,15,6.21,1.5,12,1.5m0-1.5C5.37,0,0,6.72,0,15s5.37,15,12,15,12-6.72,12-15S18.63,0,12,0h0Z"/>
      </g>
      <polygon class="cls-2" points="23.59 17.58 23.42 17.07 17.11 20.34 21.67 6.56 21.26 6.35 18.63 14.28 16.86 8.93 16.86 8.93 14.07 .51 13.65 .72 16.27 8.63 5.26 2.93 5.09 3.44 11.42 6.72 7.14 8.93 7.14 8.93 .41 12.42 .58 12.93 6.89 9.66 2.33 23.44 2.74 23.65 5.37 15.72 7.14 21.07 7.14 21.07 9.93 29.49 10.35 29.28 7.73 21.37 12 23.59 12 23.59 12 23.59 18.74 27.07 18.91 26.56 12.58 23.28 23.59 17.58"/>
    </g>
    <path class="cls-1" d="m9.47,10.39c-3.37,4.54-4.2,6.41-5.22,6.19-1.33-.29-1.54-3.77-1.6-4.87-.04-.74,0-2.48,1.07-4.34.28-.5,1.8-3.04,4.91-3.84,1.69-.44,4.57-.54,5.12.67.47,1.02-1.21,2.08-4.26,6.19Z"/>
    <path class="cls-1" d="m11.22,11.08c-.19-.3.22-.7,2.11-3.48.83-1.22,1.03-1.55,1.21-1.5.41.12.22,2.02-.24,3.43-.22.68-.4.93-.57,1.1-.77.78-2.21.9-2.51.44Z"/>
  </g>
</svg>