<?xml version="1.0" encoding="UTF-8"?>
<svg id="_Слой_2" data-name="Слой 2" xmlns="http://www.w3.org/2000/svg" viewBox="0 0 426.58 503.82">
  <defs>
    <style>
      .cls-1, .cls-2 {
        stroke-width: 0px;
      }

      .cls-2 {
        fill: #fff;
      }
    </style>
  </defs>
  <g id="_Слой_1-2" data-name="Слой 1">
    <g>
      <path class="cls-2" d="m1.5,18.5v368.13c0,9.39,7.61,17,17,17h152.89c9.39,0,17,7.61,17,17v36.72c.01,4.74-.62,13.31-5.23,22.62-6.52,13.14-16.99,19.65-21.19,21.96,5.18-.31,18.12-1.8,30.09-11.4,7.01-5.62,11.09-11.95,13.34-16.17h202.68c9.39,0,17-7.61,17-17V18.5c0-9.39-7.61-17-17-17H18.5C9.11,1.5,1.5,9.11,1.5,18.5Z"/>
      <path class="cls-1" d="m155.42,503.82l5.83-3.21c5.14-2.83,14.64-9.35,20.57-21.31,3.34-6.73,5.1-14.32,5.08-21.95v-36.73c0-8.55-6.95-15.5-15.5-15.5H18.5c-10.2,0-18.5-8.3-18.5-18.5V18.5C0,8.3,8.3,0,18.5,0h389.58c10.2,0,18.5,8.3,18.5,18.5v438.85c0,10.2-8.3,18.5-18.5,18.5h-201.79c-3.41,6.17-7.88,11.5-13.29,15.84-11.58,9.29-24.35,11.34-30.93,11.73l-6.64.4ZM18.5,3c-8.55,0-15.5,6.95-15.5,15.5v368.13c0,8.55,6.95,15.5,15.5,15.5h152.89c10.2,0,18.5,8.3,18.5,18.5v36.72c.02,8.08-1.84,16.14-5.39,23.28-4.48,9.03-10.88,15.14-16.16,18.99,6.45-1.2,14.9-3.97,22.77-10.28,5.33-4.27,9.69-9.56,12.95-15.71l.42-.8h203.58c8.55,0,15.5-6.95,15.5-15.5V18.5c0-8.55-6.95-15.5-15.5-15.5H18.5Z"/>
    </g>
  </g>
</svg>