<?xml version="1.0" encoding="UTF-8"?>
<svg id="_Слой_2" data-name="Слой 2" xmlns="http://www.w3.org/2000/svg" viewBox="0 0 368.24 141.55">
  <defs>
    <style>
      .cls-1, .cls-2 {
        stroke-width: 0px;
      }

      .cls-2 {
        fill: #fff;
      }
    </style>
  </defs>
  <g id="_Слой_1-2" data-name="Слой 1">
    <g>
      <path class="cls-2" d="m325.58,102.27V18.5c0-9.39-7.61-17-17-17H18.5C9.11,1.5,1.5,9.11,1.5,18.5v104.55c0,9.39,7.61,17,17,17h290.09c9.39,0,17-7.61,17-17v-.87c25.47-6.82,36.62-37.02,39.32-45.02-8.2,7.69-21.38,21.72-39.32,25.11Z"/>
      <path class="cls-1" d="m308.58,141.55H18.5c-10.2,0-18.5-8.3-18.5-18.5V18.5C0,8.3,8.3,0,18.5,0h290.08c10.2,0,18.5,8.3,18.5,18.5v81.92c14.95-3.48,26.54-14.57,34.32-22,.87-.83,1.7-1.62,2.48-2.35l4.36-4.08-1.91,5.66c-3.87,11.46-15.37,38.56-39.24,45.68-.14,10.08-8.38,18.24-18.5,18.24ZM18.5,3c-8.55,0-15.5,6.95-15.5,15.5v104.55c0,8.55,6.95,15.5,15.5,15.5h290.08c8.55,0,15.5-6.95,15.5-15.5v-2.02l1.11-.3c19.69-5.27,30.8-25.24,36.03-38-8.29,7.83-20.12,18.14-35.36,21.01l-1.78.34V18.5c0-8.55-6.95-15.5-15.5-15.5H18.5Z"/>
    </g>
  </g>
</svg>